<svg xmlns="http://www.w3.org/2000/svg" xmlns:xlink="http://www.w3.org/1999/xlink" width="500" zoomAndPan="magnify" viewBox="0 0 375 374.999991" height="500" preserveAspectRatio="xMidYMid meet" version="1.0"><defs><g/><clipPath id="id1"><path d="M 240.753906 150.886719 L 342.753906 150.886719 L 342.753906 242.382812 L 240.753906 242.382812 Z M 240.753906 150.886719 " clip-rule="nonzero"/></clipPath></defs><g clip-path="url(#id1)"><path fill="#f6f0cc" d="M 321.257812 168.75 L 321.257812 187.269531 C 321.257812 188.1875 321.226562 189.105469 321.164062 190.015625 L 323.507812 190.015625 C 326.453125 190.015625 329.117188 188.828125 331.042969 186.90625 C 332.972656 184.980469 334.160156 182.320312 334.160156 179.382812 C 334.160156 176.445312 332.972656 173.792969 331.042969 171.871094 C 329.117188 169.949219 326.453125 168.75 323.507812 168.75 Z M 248.601562 242.386719 L 313.414062 242.386719 L 313.414062 233.804688 L 248.601562 233.804688 Z M 281.007812 150.886719 C 291.296875 150.886719 280.695312 172.535156 277.324219 176.496094 C 268.558594 186.820312 269.316406 197.503906 272.070312 205.390625 C 263.707031 201.117188 257.832031 191.007812 257.832031 179.234375 C 257.832031 163.578125 268.203125 150.886719 281.007812 150.886719 Z M 289.613281 152.90625 C 298.15625 157.082031 304.183594 167.296875 304.183594 179.234375 C 304.183594 194.886719 293.8125 207.570312 281.007812 207.570312 C 271.566406 207.570312 276.671875 185.121094 281.777344 179.117188 C 291.347656 167.84375 291.390625 158.71875 289.613281 152.90625 Z M 319.621094 198.59375 C 317.683594 205.113281 314.140625 210.949219 309.441406 215.640625 C 302.140625 222.925781 292.078125 227.4375 281.007812 227.4375 C 269.9375 227.4375 259.863281 222.925781 252.574219 215.640625 C 245.285156 208.363281 240.757812 198.316406 240.757812 187.269531 L 240.757812 164.457031 C 240.757812 162.09375 242.683594 160.171875 245.058594 160.171875 L 260.378906 160.171875 L 260.230469 160.40625 C 258.589844 163.003906 257.339844 165.824219 256.472656 168.75 L 249.351562 168.75 L 249.351562 187.269531 C 249.351562 195.945312 252.917969 203.84375 258.65625 209.570312 C 264.394531 215.296875 272.304688 218.855469 281.007812 218.855469 C 289.710938 218.855469 297.621094 215.296875 303.359375 209.570312 C 307.566406 205.371094 310.609375 199.996094 311.925781 194 C 311.957031 193.625 312.019531 193.261719 312.136719 192.921875 C 312.480469 191.082031 312.652344 189.191406 312.652344 187.269531 L 312.652344 168.75 L 305.523438 168.75 C 304.625 165.714844 303.328125 162.808594 301.636719 160.171875 L 323.507812 160.171875 C 328.828125 160.171875 333.632812 162.316406 337.125 165.792969 C 340.605469 169.273438 342.753906 174.082031 342.753906 179.382812 C 342.753906 184.695312 340.605469 189.492188 337.125 192.976562 C 333.632812 196.449219 328.828125 198.59375 323.507812 198.59375 Z M 319.621094 198.59375 " fill-opacity="1" fill-rule="evenodd"/></g><g fill="#f6f0cc" fill-opacity="1"><g transform="translate(8.880025, 271.130866)"><g><path d="M 21.09375 -36.875 C 23.675781 -36.875 26.195312 -36.375 28.65625 -35.375 C 31.125 -34.382812 33.25 -32.992188 35.03125 -31.203125 L 31.421875 -26.703125 C 30.085938 -28.128906 28.507812 -29.257812 26.6875 -30.09375 C 24.875 -30.9375 23.039062 -31.359375 21.1875 -31.359375 C 17.519531 -31.359375 14.414062 -30.109375 11.875 -27.609375 C 9.34375 -25.109375 8.078125 -22.0625 8.078125 -18.46875 C 8.078125 -14.832031 9.34375 -11.757812 11.875 -9.25 C 14.414062 -6.75 17.519531 -5.5 21.1875 -5.5 C 25 -5.5 28.410156 -6.953125 31.421875 -9.859375 L 35.09375 -5.765625 C 33.207031 -3.910156 31.003906 -2.441406 28.484375 -1.359375 C 25.960938 -0.273438 23.425781 0.265625 20.875 0.265625 C 15.488281 0.265625 10.957031 -1.523438 7.28125 -5.109375 C 3.613281 -8.691406 1.78125 -13.125 1.78125 -18.40625 C 1.78125 -23.613281 3.640625 -27.992188 7.359375 -31.546875 C 11.085938 -35.097656 15.664062 -36.875 21.09375 -36.875 Z M 21.09375 -36.875 "/></g></g></g><g fill="#f6f0cc" fill-opacity="1"><g transform="translate(46.493714, 271.130866)"><g><path d="M 28.53125 -8.28125 L 10.015625 -8.28125 L 6.5 0 L 0.046875 0 L 16.265625 -36.71875 L 22.609375 -36.71875 L 38.65625 0 L 32.046875 0 Z M 26.171875 -13.796875 L 19.25 -30.109375 L 12.328125 -13.796875 Z M 26.171875 -13.796875 "/></g></g></g><g fill="#f6f0cc" fill-opacity="1"><g transform="translate(86.258242, 271.130866)"><g><path d="M 29.421875 -31.15625 L 11.015625 -31.15625 L 11.015625 -20.5625 L 27.6875 -20.5625 L 27.6875 -15.046875 L 11.015625 -15.046875 L 11.015625 0 L 4.828125 0 L 4.828125 -36.71875 L 29.484375 -36.71875 Z M 29.421875 -31.15625 "/></g></g></g><g fill="#f6f0cc" fill-opacity="1"><g transform="translate(117.471856, 271.130866)"><g><path d="M 29.421875 -31.15625 L 11.015625 -31.15625 L 11.015625 -20.5625 L 27.6875 -20.5625 L 27.6875 -15.046875 L 11.015625 -15.046875 L 11.015625 0 L 4.828125 0 L 4.828125 -36.71875 L 29.484375 -36.71875 Z M 29.421875 -31.15625 "/></g></g></g><g fill="#f6f0cc" fill-opacity="1"><g transform="translate(148.685465, 271.130866)"><g><path d="M 31.046875 -31.15625 L 11.015625 -31.15625 L 11.015625 -21.25 L 28.953125 -21.25 L 28.953125 -15.6875 L 11.015625 -15.6875 L 11.015625 -5.5625 L 31.6875 -5.5625 L 31.6875 0 L 4.828125 0 L 4.828125 -36.71875 L 31.046875 -36.71875 Z M 31.046875 -31.15625 "/></g></g></g><g fill="#f6f0cc" fill-opacity="1"><g transform="translate(184.148298, 271.130866)"><g><path d="M 11.015625 0 L 4.828125 0 L 4.828125 -36.71875 L 11.015625 -36.71875 Z M 11.015625 0 "/></g></g></g><g fill="#f6f0cc" fill-opacity="1"><g transform="translate(201.040445, 271.130866)"><g><path d="M 36.671875 0 L 30.578125 0 L 11.015625 -26.328125 L 11.015625 0 L 4.828125 0 L 4.828125 -36.71875 L 10.90625 -36.71875 L 30.578125 -10.328125 L 30.578125 -36.71875 L 36.671875 -36.71875 Z M 36.671875 0 "/></g></g></g><g fill="#f6f0cc" fill-opacity="1"><g transform="translate(243.637776, 271.130866)"><g><path d="M 31.046875 -31.15625 L 11.015625 -31.15625 L 11.015625 -21.25 L 28.953125 -21.25 L 28.953125 -15.6875 L 11.015625 -15.6875 L 11.015625 -5.5625 L 31.6875 -5.5625 L 31.6875 0 L 4.828125 0 L 4.828125 -36.71875 L 31.046875 -36.71875 Z M 31.046875 -31.15625 "/></g></g></g><g fill="#d4a373" fill-opacity="1"><g transform="translate(295.887183, 269.220502)"><g><path d="M 3.671875 -24.46875 L 7.171875 -24.46875 L 7.171875 -3.046875 L 20.40625 -3.046875 L 20.40625 0 L 3.671875 0 Z M 3.671875 -24.46875 "/></g></g></g><g fill="#d4a373" fill-opacity="1"><g transform="translate(318.397365, 269.220502)"><g><path d="M 19.265625 -6.109375 L 6.25 -6.109375 L 3.5625 0 L -0.03125 0 L 11.046875 -24.46875 L 14.5 -24.46875 L 25.625 0 L 21.953125 0 Z M 18.03125 -8.90625 L 12.765625 -20.90625 L 7.484375 -8.90625 Z M 18.03125 -8.90625 "/></g></g></g><g fill="#d4a373" fill-opacity="1"><g transform="translate(345.73111, 269.220502)"><g><path d="M 20.140625 -12.6875 C 21.554688 -12.289062 22.671875 -11.570312 23.484375 -10.53125 C 24.304688 -9.5 24.71875 -8.191406 24.71875 -6.609375 C 24.71875 -4.484375 23.914062 -2.847656 22.3125 -1.703125 C 20.71875 -0.566406 18.394531 0 15.34375 0 L 3.671875 0 L 3.671875 -24.46875 L 14.640625 -24.46875 C 17.441406 -24.46875 19.601562 -23.90625 21.125 -22.78125 C 22.65625 -21.664062 23.421875 -20.117188 23.421875 -18.140625 C 23.421875 -16.859375 23.125 -15.75 22.53125 -14.8125 C 21.9375 -13.882812 21.140625 -13.175781 20.140625 -12.6875 Z M 7.171875 -21.640625 L 7.171875 -13.8125 L 14.328125 -13.8125 C 16.117188 -13.8125 17.5 -14.140625 18.46875 -14.796875 C 19.4375 -15.460938 19.921875 -16.4375 19.921875 -17.71875 C 19.921875 -19 19.4375 -19.972656 18.46875 -20.640625 C 17.5 -21.304688 16.117188 -21.640625 14.328125 -21.640625 Z M 15.203125 -2.828125 C 17.179688 -2.828125 18.671875 -3.148438 19.671875 -3.796875 C 20.679688 -4.453125 21.1875 -5.484375 21.1875 -6.890625 C 21.1875 -9.609375 19.191406 -10.96875 15.203125 -10.96875 L 7.171875 -10.96875 L 7.171875 -2.828125 Z M 15.203125 -2.828125 "/></g></g></g></svg>